<svg width="512" height="512" viewBox="0 0 512 512" xmlns="http://www.w3.org/2000/svg">
  <circle cx="256" cy="256" r="256" fill="#4EC6C6"/>
  <path d="M202 350c0 0 27 28 54 28s54-28 54-28c38-36 38-94 0-130 0 0-27-28-54-28s-54 28-54 28C164 256 164 314 202 350z" fill="#F28B2C" stroke="#FFFFFF" stroke-width="20" stroke-linecap="round" stroke-linejoin="round"/>
  <path d="M256 230c-25 0-45 18-45 40 0 17 12 28 30 31v21c-10 4-18 10-18 19 0 10 12 19 24 19 9 0 18-6 24-10 6 4 15 10 24 10 12 0 24-9 24-19 0-9-8-15-18-19v-21c18-3 30-14 30-31 0-22-20-40-45-40z" 
  fill="#FFFFFF"/>
</svg>
