<svg width="512" height="512" viewBox="0 0 512 512" fill="none" xmlns="http://www.w3.org/2000/svg">
  <circle cx="256" cy="256" r="256" fill="#25C3C8"/>
  <path d="M331.3 343.4C331.3 343.4 331.3 343.4 331.3 343.4C303.8 369.3 256 369.3 256 369.3C256 369.3 208.2 369.3 180.7 343.4C153.1 317.4 153.1 274.5 153.1 274.5V214.6C153.1 214.6 153.1 171.7 180.7 145.7C208.2 119.8 256 119.8 256 119.8C256 119.8 303.8 119.8 331.3 145.7C358.9 171.7 358.9 214.6 358.9 214.6V274.5C358.9 274.5 358.9 317.4 331.3 343.4Z" fill="#F58220" stroke="white" stroke-width="18" stroke-linejoin="round"/>
  <path d="M298.4 206.1C292.7 200.4 284.4 197 276 197C267.6 197 259.3 200.4 253.6 206.1C248.9 210.8 246 217.4 246 224.4C246 238 255.8 249.9 269 252.7C270 252.9 271 253 272 253C286.2 253 298 241.2 298 227C298 219.6 295.1 212.7 290.2 207.8L298.4 206.1Z" fill="#25C3C8" stroke="white" stroke-width="12" stroke-linecap="round" stroke-linejoin="round"/>
</svg>
